name ./resultDataOpenSim/trcMotMarkerGrf/sub06/grf-03-04.mot
datacolumns 19
datarows 10
range 0.98000000 1.01600000
endheader

                time	     ground_force_vx	     ground_force_vy	     ground_force_vz	     ground_force_px	     ground_force_py	     ground_force_pz	   l_ground_force_vx	   l_ground_force_vy	   l_ground_force_vz	   l_ground_force_px	   l_ground_force_py	   l_ground_force_pz	     ground_torque_x	     ground_torque_y	     ground_torque_z	   l_ground_torque_x	   l_ground_torque_y	   l_ground_torque_z	
          0.98000000	          0.00000000	          0.00000000	          0.00000000	          0.00000000	          0.00000000	          0.00000000	        109.60538132	        686.52666371	         46.42779902	          0.04987860	         -0.05000000	         -0.04027080	          0.00000000	          0.00000000	          0.00000000	          0.00000000	         -1.60258993	          0.00000000	
          0.98400000	          0.00000000	          0.00000000	          0.00000000	          0.00000000	          0.00000000	          0.00000000	        117.43692583	        708.00887477	         47.94625605	          0.05029717	         -0.05000000	         -0.04014455	          0.00000000	          0.00000000	          0.00000000	          0.00000000	         -1.70345722	          0.00000000	
          0.98800000	          0.00000000	          0.00000000	          0.00000000	          0.00000000	          0.00000000	          0.00000000	        125.55086483	        727.87217262	         48.95676589	          0.05082578	         -0.05000000	         -0.03993274	          0.00000000	          0.00000000	          0.00000000	          0.00000000	         -1.82840993	          0.00000000	
          0.99200000	          0.00000000	          0.00000000	          0.00000000	          0.00000000	          0.00000000	          0.00000000	        133.85822022	        745.74872712	         49.46382103	          0.05144887	         -0.05000000	         -0.03963388	          0.00000000	          0.00000000	          0.00000000	          0.00000000	         -1.97403089	          0.00000000	
          0.99600000	          0.00000000	          0.00000000	          0.00000000	          0.00000000	          0.00000000	          0.00000000	        142.29003229	        761.36159918	         49.48979549	          0.05213770	         -0.05000000	         -0.03925333	          0.00000000	          0.00000000	          0.00000000	          0.00000000	         -2.13552188	          0.00000000	
          1.00000000	          0.00000000	          0.00000000	          0.00000000	          0.00000000	          0.00000000	          0.00000000	        150.78360221	        774.51056492	         49.06461212	          0.05285068	         -0.05000000	         -0.03881889	          0.00000000	          0.00000000	          0.00000000	          0.00000000	         -2.30696627	          0.00000000	
          1.00400000	          0.00000000	          0.00000000	          0.00000000	          0.00000000	          0.00000000	          0.00000000	        159.25316814	        785.05043886	         48.23566486	          0.05354593	         -0.05000000	         -0.03836876	          0.00000000	          0.00000000	          0.00000000	          0.00000000	         -2.48174545	          0.00000000	
          1.00800000	          0.00000000	          0.00000000	          0.00000000	          0.00000000	          0.00000000	          0.00000000	        167.58656311	        792.89598103	         47.08152044	          0.05422399	         -0.05000000	         -0.03791323	          0.00000000	          0.00000000	          0.00000000	          0.00000000	         -2.65294242	          0.00000000	
          1.01200000	          0.00000000	          0.00000000	          0.00000000	          0.00000000	          0.00000000	          0.00000000	        175.68260855	        798.01366359	         45.70029836	          0.05492219	         -0.05000000	         -0.03744420	          0.00000000	          0.00000000	          0.00000000	          0.00000000	         -2.81364901	          0.00000000	
          1.01600000	          0.00000000	          0.00000000	          0.00000000	          0.00000000	          0.00000000	          0.00000000	        183.47304617	        800.37491841	         44.18088101	          0.05569010	         -0.05000000	         -0.03695900	          0.00000000	          0.00000000	          0.00000000	          0.00000000	         -2.95724627	          0.00000000	
